<svg width="422" height="420" viewBox="0 0 422 420" fill="none" xmlns="http://www.w3.org/2000/svg">
<rect width="420" height="420" rx="30" transform="matrix(-1 0 0 1 420 0)" fill="#F5F5F5"/>
<g filter="url(#filter0_d_3007_3)">
<path d="M46.7157 134.675L46.4624 135.726L85.3409 127.539L85.5942 126.489L100.886 123.276L100.633 124.327L139.511 116.141L139.764 115.09L155.056 111.847L154.803 112.897L193.682 104.711L193.935 103.66L209.227 100.417L208.973 101.467L247.852 93.281L248.105 92.2307L263.397 89.018L263.144 90.0683L302.022 81.8822L302.275 80.8319L317.567 77.5883L317.314 78.6386L356.193 70.4215L356.446 69.3712L392 61.8647L384.085 26L366.355 29.7378L366.609 28.6875L327.73 36.8737L327.477 37.924L312.185 41.1367L312.438 40.0864L273.56 48.2726L273.307 49.3229L258.015 52.5355L258.268 51.4852L219.389 59.7023L219.136 60.7526L203.844 63.9962L204.098 62.9459L165.219 71.1629L164.966 72.2132L149.674 75.395L149.927 74.3447L111.049 82.5618L110.796 83.6121L95.5038 86.8248L95.757 85.7745L56.8785 93.9606L56.6252 95.0109L18 103.135L25.9783 139L46.7157 134.675ZM382.66 28.2551L389.752 60.3819L357.047 67.2706L365.912 31.7767L382.66 28.2551ZM327.034 39.9628L318.169 75.4568L302.877 78.6695L311.742 43.1755L327.034 39.9628ZM272.832 51.3926L263.967 86.8865L248.675 90.1301L257.54 54.6361L272.832 51.3926ZM218.661 62.8223L209.797 98.3163L194.505 101.529L203.37 66.035L218.661 62.8223ZM164.459 74.252L155.595 109.746L140.303 112.959L149.168 77.4647L164.459 74.252ZM110.289 85.6818L101.424 121.176L86.1324 124.388L94.9972 88.8945L110.289 85.6818ZM56.087 97.1115L47.2222 132.606L27.4663 136.776L20.3428 104.649L56.087 97.1115Z" fill="#2A1B1B"/>
</g>
<g filter="url(#filter1_d_3007_3)">
<path d="M26 164C26 150.193 37.1929 139 51 139H369C382.807 139 394 150.193 394 164V360C394 373.807 382.807 385 369 385H51C37.1929 385 26 373.807 26 360V164Z" fill="#F99417"/>
</g>
<path d="M26 139H394V247H26V139Z" fill="#F99417"/>
<g filter="url(#filter2_d_3007_3)">
<path d="M263.896 319.88C263.896 315.928 263.896 311.52 263.896 306.656C263.896 301.64 263.896 297.156 263.896 293.204C263.896 290.62 263.896 287.884 263.896 284.996C263.896 282.108 263.896 279.144 263.896 276.104C263.896 273.064 263.896 270.024 263.896 266.984C263.896 263.944 263.896 260.98 263.896 258.092C263.896 255.204 263.896 252.392 263.896 249.656C263.896 247.68 263.896 245.856 263.896 244.184C263.896 242.36 263.896 240.688 263.896 239.168C263.896 237.496 263.896 235.9 263.896 234.38C263.896 232.86 263.896 231.34 263.896 229.82C263.896 228.3 263.896 226.78 263.896 225.26C263.896 223.74 263.896 222.144 263.896 220.472C263.896 218.8 263.896 216.976 263.896 215C263.896 213.632 263.82 212.644 263.668 212.036C263.668 211.276 263.592 210.82 263.44 210.668C263.44 210.364 263.288 210.364 262.984 210.668C262.832 210.972 262.604 211.504 262.3 212.264C261.996 212.872 261.616 213.708 261.16 214.772C260.552 216.292 259.868 218.116 259.108 220.244C258.5 222.22 257.74 224.424 256.828 226.856C255.916 229.136 254.928 231.568 253.864 234.152C252.952 236.736 252.04 239.396 251.128 242.132C250.216 244.716 249.228 247.376 248.164 250.112C247.252 252.696 246.34 255.204 245.428 257.636C244.668 259.916 243.908 262.044 243.148 264.02C241.78 267.82 240.564 271.24 239.5 274.28C238.436 277.168 237.296 280.208 236.08 283.4C234.864 286.44 233.42 290.24 231.748 294.8C230.228 299.36 228.176 305.212 225.592 312.356C223.92 316.916 222.096 320.564 220.12 323.3C218.144 326.036 216.092 327.86 213.964 328.772C211.988 329.532 209.936 329.532 207.808 328.772C205.68 327.86 203.628 326.188 201.652 323.756C199.676 321.172 197.852 317.828 196.18 313.724C193.292 306.276 190.936 300.272 189.112 295.712C187.44 291 186.072 287.124 185.008 284.084C183.944 280.892 182.88 277.928 181.816 275.192C180.904 272.304 179.764 268.96 178.396 265.16C177.636 263.184 176.8 260.98 175.888 258.548C175.128 256.116 174.216 253.608 173.152 251.024C172.24 248.44 171.252 245.78 170.188 243.044C169.276 240.308 168.288 237.648 167.224 235.064C166.312 232.328 165.4 229.744 164.488 227.312C163.576 224.88 162.74 222.676 161.98 220.7C161.22 218.724 160.536 216.976 159.928 215.456C159.472 214.24 159.092 213.328 158.788 212.72C158.484 211.96 158.18 211.504 157.876 211.352C157.724 211.048 157.572 211.048 157.42 211.352C157.42 211.656 157.344 212.188 157.192 212.948C157.192 213.708 157.192 214.696 157.192 215.912C157.192 217.128 157.192 218.572 157.192 220.244C157.192 221.764 157.192 223.512 157.192 225.488C157.192 227.312 157.192 229.288 157.192 231.416C157.192 233.392 157.192 235.444 157.192 237.572C157.192 239.7 157.192 241.828 157.192 243.956C157.192 245.932 157.192 247.832 157.192 249.656C157.192 253.304 157.192 256.648 157.192 259.688C157.192 262.576 157.192 265.388 157.192 268.124C157.192 270.708 157.192 273.368 157.192 276.104C157.192 278.688 157.192 281.5 157.192 284.54C157.192 287.428 157.192 290.696 157.192 294.344C157.192 297.384 157.192 300.272 157.192 303.008C157.192 305.744 157.192 308.48 157.192 311.216C157.192 313.8 157.192 316.688 157.192 319.88C157.192 323.68 156.128 326.568 154 328.544C152.024 330.52 149.668 331.508 146.932 331.508C144.196 331.508 141.764 330.52 139.636 328.544C137.66 326.568 136.672 323.68 136.672 319.88C136.672 317.296 136.672 314.56 136.672 311.672C136.672 308.632 136.672 305.592 136.672 302.552C136.672 299.512 136.672 296.776 136.672 294.344C136.672 290.24 136.672 285.528 136.672 280.208C136.672 274.736 136.672 269.34 136.672 264.02C136.672 258.548 136.672 253.76 136.672 249.656C136.672 245.552 136.672 241.752 136.672 238.256C136.672 234.76 136.672 231.188 136.672 227.54C136.672 223.74 136.672 219.256 136.672 214.088C136.672 208.92 136.672 202.536 136.672 194.936C136.672 189.16 137.508 184.448 139.18 180.8C141.004 177 143.36 174.416 146.248 173.048C149.136 171.528 152.252 171.3 155.596 172.364C158.94 173.276 162.208 175.556 165.4 179.204C168.744 182.7 171.632 187.64 174.064 194.024C176.496 200.104 178.928 206.564 181.36 213.404C183.944 220.092 186.528 227.008 189.112 234.152C191.696 241.296 194.28 248.516 196.864 255.812C199.6 263.108 202.336 270.404 205.072 277.7C207.504 284.236 209.936 289.024 212.368 292.064C214.952 294.952 217.308 296.928 219.436 297.992C221.716 299.056 223.54 299.892 224.908 300.5C226.428 301.108 227.264 302.248 227.416 303.92C227.72 305.44 227.112 308.252 225.592 312.356C223.92 316.916 222.096 320.564 220.12 323.3C218.144 326.036 216.092 327.86 213.964 328.772C211.988 329.532 209.936 329.532 207.808 328.772C205.68 327.86 203.628 326.188 201.652 323.756C199.676 321.172 197.852 317.828 196.18 313.724C195.116 310.836 194.66 308.784 194.812 307.568C195.116 306.2 195.876 305.136 197.092 304.376C198.46 303.464 200.132 302.248 202.108 300.728C204.084 299.056 206.212 296.548 208.492 293.204C210.924 289.86 213.356 284.996 215.788 278.612C218.524 271.316 221.26 263.944 223.996 256.496C226.732 249.048 229.392 241.676 231.976 234.38C234.712 226.932 237.372 219.712 239.956 212.72C242.54 205.728 245.048 199.116 247.48 192.884C249.76 186.804 252.496 182.016 255.688 178.52C258.88 175.024 262.148 172.82 265.492 171.908C268.836 170.844 271.952 171.072 274.84 172.592C277.728 173.96 280.008 176.468 281.68 180.116C283.504 183.612 284.416 188.248 284.416 194.024C284.416 201.776 284.416 208.54 284.416 214.316C284.416 220.092 284.416 225.184 284.416 229.592C284.416 233.848 284.416 237.648 284.416 240.992C284.416 244.184 284.416 247.072 284.416 249.656C284.416 254.976 284.416 259.992 284.416 264.704C284.416 269.264 284.416 273.824 284.416 278.384C284.416 282.944 284.416 287.884 284.416 293.204C284.416 296.396 284.416 299.436 284.416 302.324C284.416 305.06 284.416 307.872 284.416 310.76C284.416 313.496 284.416 316.536 284.416 319.88C284.416 323.68 283.352 326.568 281.224 328.544C279.248 330.52 276.892 331.508 274.156 331.508C271.42 331.508 268.988 330.52 266.86 328.544C264.884 326.568 263.896 323.68 263.896 319.88Z" fill="white"/>
</g>
<defs>
<filter id="filter0_d_3007_3" x="16" y="24" width="394" height="133" filterUnits="userSpaceOnUse" color-interpolation-filters="sRGB">
<feFlood flood-opacity="0" result="BackgroundImageFix"/>
<feColorMatrix in="SourceAlpha" type="matrix" values="0 0 0 0 0 0 0 0 0 0 0 0 0 0 0 0 0 0 127 0" result="hardAlpha"/>
<feOffset dx="8" dy="8"/>
<feGaussianBlur stdDeviation="5"/>
<feComposite in2="hardAlpha" operator="out"/>
<feColorMatrix type="matrix" values="0 0 0 0 0 0 0 0 0 0 0 0 0 0 0 0 0 0 0.5 0"/>
<feBlend mode="normal" in2="BackgroundImageFix" result="effect1_dropShadow_3007_3"/>
<feBlend mode="normal" in="SourceGraphic" in2="effect1_dropShadow_3007_3" result="shape"/>
</filter>
<filter id="filter1_d_3007_3" x="14" y="127" width="408" height="286" filterUnits="userSpaceOnUse" color-interpolation-filters="sRGB">
<feFlood flood-opacity="0" result="BackgroundImageFix"/>
<feColorMatrix in="SourceAlpha" type="matrix" values="0 0 0 0 0 0 0 0 0 0 0 0 0 0 0 0 0 0 127 0" result="hardAlpha"/>
<feOffset dx="8" dy="8"/>
<feGaussianBlur stdDeviation="10"/>
<feComposite in2="hardAlpha" operator="out"/>
<feColorMatrix type="matrix" values="0 0 0 0 0 0 0 0 0 0 0 0 0 0 0 0 0 0 0.75 0"/>
<feBlend mode="normal" in2="BackgroundImageFix" result="effect1_dropShadow_3007_3"/>
<feBlend mode="normal" in="SourceGraphic" in2="effect1_dropShadow_3007_3" result="shape"/>
</filter>
<filter id="filter2_d_3007_3" x="136.672" y="168.312" width="169.744" height="181.196" filterUnits="userSpaceOnUse" color-interpolation-filters="sRGB">
<feFlood flood-opacity="0" result="BackgroundImageFix"/>
<feColorMatrix in="SourceAlpha" type="matrix" values="0 0 0 0 0 0 0 0 0 0 0 0 0 0 0 0 0 0 127 0" result="hardAlpha"/>
<feOffset dx="12" dy="8"/>
<feGaussianBlur stdDeviation="5"/>
<feComposite in2="hardAlpha" operator="out"/>
<feColorMatrix type="matrix" values="0 0 0 0 0 0 0 0 0 0 0 0 0 0 0 0 0 0 0.5 0"/>
<feBlend mode="normal" in2="BackgroundImageFix" result="effect1_dropShadow_3007_3"/>
<feBlend mode="normal" in="SourceGraphic" in2="effect1_dropShadow_3007_3" result="shape"/>
</filter>
</defs>
</svg>
