<svg enable-background="new 0 0 1500 1500" viewBox="0 0 1500 1500" xmlns="http://www.w3.org/2000/svg"><g fill="none"><path d="m1125.2 231.4-48.4 10.5-28 114.9 48.4-10.5z"/><path d="m954 268.4-48.3 10.5-28 114.9 48.3-10.5z"/><path d="m782.9 305.4-48.3 10.5-28 114.9 48.3-10.5z"/><path d="m611.7 342.4-48.3 10.5-28 114.9 48.3-10.5z"/><path d="m1300.9 193.5-52.9 11.4-28 114.9 103.3-22.3z"/></g><path d="m984.7 1076h326.5 39.7v-502.6h-661c45.6 38.6 69.4 82.7 80.8 124.5 6.2 22.7 8.7 44.8 9.1 64.8.2 12-.3 23.3-1.3 33.6-2 20.8-5.7 37.8-8.6 48.4 27.2.8 53.1 6.4 77 16.1 84.1 35.2 93 68.2 115.8 108.2 1.3 2.7 2.5 5.5 3.7 8.3 4.8 10.8 8.8 22 11.8 33.7 1.4 5.5 2.7 11.1 3.7 16.9-7.8 4.2-16.5 8.4-26.3 12.4-9.9 3-34.3 10.3-69.4 12-41 1.6-80.7-14.6-128.6-31.2-10.1-3.2-20.7-6.7-32-10.1-47.9-14.4-105.9-27.4-172.4-14.9 2.2-6.4 4.7-12.7 7.4-18.8 32.6-74.2 104.4-127.1 189.3-132.3-19.4-15.7-35.3-32.1-48.2-48.7-8.7-11.1-15.9-22.4-22.1-33.6-12.1-22-19.8-43.9-24.4-64.8-11.6-52.9-3.7-99.4 2.8-124.5h-486.7v457.2h79.4 294.8v.3c37.9-9.6 75.6-11.5 105.1-7.7 29.4 1.9 55.9 6.8 79.9 12.3 31.7 7.3 59.5 15.7 85.6 21.9 30 7.1 57.6 9 86.1 6.6 45.8-4.6 74.4-18.1 74.5-17-.5-1-24.5 17.1-72.7 28.3-24.4 5.4-54.5 4.5-88.1-1.6-33.8-5.8-72.2-16.9-120.6-22.5-47.4-6-102.5 0-149.8 23.4v.6h-1.4c-.7.3-1.4.8-2 1.1 0-.4 0-.7-.1-1.1h-291.3-79.4v188.3c0 27.9 22.6 50.5 50.5 50.5h1078.7c27.9 0 50.5-22.6 50.5-50.5v-140.6h-39.7-335c-1.4.3-2.7.6-4.1.9-34.7 7.7-68.7 9-95.7 5.5-16.1-1.1-31.3-3.1-45.8-5.5-11.9-2-23.3-4.3-34.1-6.8-31.7-7.3-59.5-15.6-85.6-21.9-30.1-7.1-57.6-9-86.1-6.6-45.9 4.5-74.4 18.1-74.5 17 .4 1 24.4-17.1 72.7-28.3 24.4-5.4 54.6-4.5 88.1 1.6 33.8 5.8 72.2 16.9 120.6 22.4 47.9 6.1 103.6-.1 151.2-24 .6-.3 1.2-.6 1.8-1-.1.1-.1-.1-.1-.2zm-413.2 36.2c9.8-3 34.3-10.3 69.4-12 34.5-1.3 68.2 10 106.6 23.5 7.2 2.5 14.4 5.1 21.9 7.7 51.4 16.5 117.6 38.8 196.1 26.3-34.8 77-112.2 130.6-202.1 130.6-102.7 0-188.8-69.9-214.1-164.6-.1-.4-.3-.8-.3-1.1 6.8-3.5 14.2-7 22.5-10.4zm265.9-414.3c20.8-26.2 53.5-49.8 104.8-57.3 0 0-.9 26.5-15.4 57.3-10.5 22.2-28.3 46.6-58 64.8-17.8 10.9-39.9 19.6-67.4 24.3 0 0 .7-9.8 4.4-24.3 4.4-17.6 13.6-42.1 31.6-64.8z" fill="#f69322"/><path d="m239.8 538-.8 3.4 122.8-26.5.8-3.4 48.3-10.4-.8 3.4 122.8-26.5.8-3.4 48.3-10.5-.8 3.4 122.8-26.5.8-3.4 48.3-10.5-.8 3.4 122.8-26.5.8-3.4 48.3-10.4-.8 3.4 122.8-26.5.8-3.4 48.3-10.5-.8 3.4 122.8-26.6.8-3.4 112.3-24.3-25-116.1-56 12.1.8-3.4-122.8 26.5-.8 3.4-48.3 10.4.8-3.4-122.8 26.5-.8 3.4-48.3 10.4.8-3.4-122.8 26.6-.8 3.4-48.3 10.5.8-3.4-122.8 26.6-.8 3.4-48.3 10.3.8-3.4-122.8 26.6-.8 3.4-48.3 10.4.8-3.4-122.8 26.5-.8 3.4-122 26.3 25.2 116.1zm1061.1-344.5 22.4 104-103.3 22.3 28-114.9zm-175.7 37.9-28 114.9-48.3 10.4 28-114.9zm-171.2 37-28 114.9-48.3 10.5 28-114.9zm-171.1 37-28 114.9-48.3 10.4 28-114.9zm-171.2 37-28 114.9-48.3 10.4 28-114.9zm-171.1 37-28 114.9-48.3 10.4 28-114.9zm-171.2 37-28 114.9-62.4 13.5-22.5-104z" fill="#333"/></svg>